<svg width="295" height="295" viewBox="0 0 295 295" fill="none" xmlns="http://www.w3.org/2000/svg">
<path d="M278.434 25.8586C287.542 25.8586 295 33.3166 295 42.4247V57.0825H0V42.4247C0 33.3166 7.45797 25.8586 16.5661 25.8586H278.434Z" fill="black"/>
<g opacity="0.25">
<path opacity="0.25" d="M16.5661 25.8586C7.45797 25.8586 0 33.3166 0 42.4247V57.0825H66.7714L84.7203 25.8586H16.5661Z" fill="white"/>
</g>
<path d="M290.391 61.7195H4.60938V264.532H290.391V61.7195Z" fill="white"/>
<path d="M285.781 66.3289V259.923H9.21875V66.3289H285.781ZM295 57.1101H0V269.141H295V57.1101Z" fill="#EFEFEF"/>
<path d="M281.172 70.9382V255.313H13.8281V70.9382H281.172ZM283.477 68.6335H11.5234V257.618H283.477V68.6335Z" fill="#E0E0E0"/>
<path d="M23.3511 46.186C25.9579 46.186 28.0711 44.0728 28.0711 41.466C28.0711 38.8592 25.9579 36.746 23.3511 36.746C20.7443 36.746 18.6311 38.8592 18.6311 41.466C18.6311 44.0728 20.7443 46.186 23.3511 46.186Z" fill="#F91E1E"/>
<path d="M37.5019 46.186C40.1086 46.186 42.2219 44.0728 42.2219 41.466C42.2219 38.8592 40.1086 36.746 37.5019 36.746C34.8951 36.746 32.7819 38.8592 32.7819 41.466C32.7819 44.0728 34.8951 46.186 37.5019 46.186Z" fill="#999999"/>
<path d="M51.6526 46.186C54.2594 46.186 56.3726 44.0728 56.3726 41.466C56.3726 38.8592 54.2594 36.746 51.6526 36.746C49.0458 36.746 46.9326 38.8592 46.9326 41.466C46.9326 44.0728 49.0458 46.186 51.6526 46.186Z" fill="#CCCCCC"/>
<path d="M246.749 49.7535H98.4562C93.9022 49.7535 90.1686 46.0292 90.1686 41.4659C90.1686 36.9118 93.893 33.1782 98.4562 33.1782H246.749C251.303 33.1782 255.037 36.9026 255.037 41.4659C255.027 46.0292 251.303 49.7535 246.749 49.7535Z" fill="white"/>
<path d="M104.043 37.4927L105.177 41.8531C105.426 42.8119 105.656 43.6969 105.813 44.5911H105.868C106.062 43.7153 106.347 42.8027 106.633 41.8716L108.034 37.4927H109.353L110.68 41.7886C111.003 42.8119 111.252 43.7153 111.445 44.5911H111.501C111.639 43.7153 111.879 42.8211 112.155 41.8071L113.372 37.4927H114.912L112.146 46.0753H110.726L109.408 41.9822C109.104 41.0235 108.855 40.1753 108.643 39.1613H108.606C108.394 40.1846 108.127 41.0788 107.832 42.0006L106.449 46.0753H105.029L102.439 37.4927C102.439 37.4927 104.043 37.4927 104.043 37.4927Z" fill="black"/>
<path d="M117.281 37.4927L118.415 41.8531C118.664 42.8119 118.894 43.6969 119.051 44.5911H119.106C119.3 43.7153 119.586 42.8027 119.871 41.8716L121.273 37.4927H122.591L123.918 41.7886C124.241 42.8119 124.49 43.7153 124.684 44.5911H124.739C124.877 43.7153 125.117 42.8211 125.393 41.8071L126.61 37.4927H128.141L125.375 46.0753H123.955L122.637 41.9822C122.333 41.0235 122.084 40.1753 121.872 39.1613H121.835C121.623 40.1846 121.356 41.0788 121.061 42.0006L119.678 46.0753H118.277L115.686 37.4927C115.686 37.4927 117.281 37.4927 117.281 37.4927Z" fill="black"/>
<path d="M130.51 37.4926L131.644 41.8531C131.893 42.8118 132.123 43.6968 132.28 44.5911H132.335C132.529 43.7153 132.815 42.8026 133.1 41.8715L134.502 37.4926H135.82L137.147 41.7886C137.47 42.8118 137.719 43.7153 137.913 44.5911H137.968C138.106 43.7153 138.346 42.8211 138.622 41.807L139.839 37.4926H141.379L138.613 46.0753H137.193L135.884 41.9729C135.58 41.0142 135.331 40.1661 135.119 39.152H135.082C134.87 40.1753 134.603 41.0695 134.308 41.9914L132.925 46.0661H131.506L128.915 37.4834H130.51V37.4926Z" fill="black"/>
<path d="M141.849 45.1534C141.849 44.4989 142.291 44.038 142.909 44.038C143.527 44.038 143.951 44.4989 143.951 45.1534C143.951 45.7895 143.545 46.2689 142.891 46.2689C142.273 46.2689 141.849 45.7895 141.849 45.1534Z" fill="black"/>
<path d="M279.061 40.5256H265.804V42.8303H279.061V40.5256Z" fill="#CCCCCC"/>
<path d="M273.446 48.5644L271.806 46.9234L277.06 41.678L271.806 36.4417L273.446 34.8008L280.314 41.678L273.446 48.5644Z" fill="#CCCCCC"/>
<path d="M247.653 38.7925L243.237 44.4989L238.83 38.7925H247.653Z" fill="#999999"/>
<path d="M116.848 171.496L100.595 111.021H83.8445V105.527H104.384L121.982 169.561L116.848 171.496Z" fill="black"/>
<path d="M125.615 220.724C132.727 220.724 138.493 214.959 138.493 207.846C138.493 200.733 132.727 194.967 125.615 194.967C118.502 194.967 112.736 200.733 112.736 207.846C112.736 214.959 118.502 220.724 125.615 220.724Z" fill="black"/>
<path d="M180.595 220.724C187.708 220.724 193.474 214.959 193.474 207.846C193.474 200.733 187.708 194.967 180.595 194.967C173.483 194.967 167.717 200.733 167.717 207.846C167.717 214.959 173.483 220.724 180.595 220.724Z" fill="black"/>
<path d="M195.318 188.984H110.902L95.0546 133.1H211.155L195.318 188.984Z" fill="#F91E1E"/>
</svg>
