<svg width="64" height="64" viewBox="0 0 64 64" fill="none" xmlns="http://www.w3.org/2000/svg">
<g clip-path="url(#clip0)">
<path d="M32 1.3335C14.32 1.3335 0 15.4135 0 32.7788C0 46.6748 9.168 58.4588 21.88 62.6135C23.48 62.9095 24.0667 61.9362 24.0667 61.1015C24.0667 60.3548 24.04 58.3762 24.0267 55.7548C15.1253 57.6508 13.248 51.5362 13.248 51.5362C11.792 47.9068 9.688 46.9362 9.688 46.9362C6.78933 44.9868 9.912 45.0268 9.912 45.0268C13.1253 45.2455 14.8133 48.2668 14.8133 48.2668C17.6667 53.0748 22.304 51.6855 24.1333 50.8828C24.4213 48.8482 25.2453 47.4642 26.16 46.6775C19.0533 45.8908 11.584 43.1868 11.584 31.1388C11.584 27.7068 12.824 24.9015 14.8773 22.7015C14.5173 21.9068 13.4373 18.7095 15.1573 14.3788C15.1573 14.3788 17.8373 13.5362 23.9573 17.6028C26.5173 16.9042 29.2373 16.5575 31.9573 16.5415C34.6773 16.5575 37.3973 16.9042 39.9573 17.6028C46.0373 13.5362 48.7173 14.3788 48.7173 14.3788C50.4373 18.7095 49.3573 21.9068 49.0373 22.7015C51.0773 24.9015 52.3173 27.7068 52.3173 31.1388C52.3173 43.2188 44.8373 45.8775 37.7173 46.6508C38.8373 47.5948 39.8773 49.5228 39.8773 52.4695C39.8773 56.6775 39.8373 60.0588 39.8373 61.0802C39.8373 61.9042 40.3973 62.8882 42.0373 62.5735C54.84 58.4455 64 46.6535 64 32.7788C64 15.4135 49.672 1.3335 32 1.3335Z" fill="#D61313"/>
</g>
<defs>
<clipPath id="clip0">
<rect width="64" height="64" fill="white"/>
</clipPath>
</defs>
</svg>
