<svg width="64" height="64" viewBox="0 0 64 64" fill="none" xmlns="http://www.w3.org/2000/svg">
<path d="M44 0H20C8.956 0 0 8.956 0 20V44C0 55.044 8.956 64 20 64H44C55.044 64 64 55.044 64 44V20C64 8.956 55.044 0 44 0ZM58 44C58 51.72 51.72 58 44 58H20C12.28 58 6 51.72 6 44V20C6 12.28 12.28 6 20 6H44C51.72 6 58 12.28 58 20V44Z" fill="#D61313"/>
<path d="M32 16C23.164 16 16 23.164 16 32C16 40.836 23.164 48 32 48C40.836 48 48 40.836 48 32C48 23.164 40.836 16 32 16ZM32 42C26.488 42 22 37.512 22 32C22 26.484 26.488 22 32 22C37.512 22 42 26.484 42 32C42 37.512 37.512 42 32 42Z" fill="#D61313"/>
<path d="M49.2 16.932C50.3775 16.932 51.332 15.9774 51.332 14.8C51.332 13.6225 50.3775 12.668 49.2 12.668C48.0225 12.668 47.068 13.6225 47.068 14.8C47.068 15.9774 48.0225 16.932 49.2 16.932Z" fill="#D61313"/>
</svg>
