<svg width="192" height="28" viewBox="0 0 192 28" fill="none" xmlns="http://www.w3.org/2000/svg">
<path d="M19.016 14.004H24.344V27H19.952V25.488C18.2 26.784 15.944 27.432 13.184 27.432C10.856 27.432 8.72 26.928 6.776 25.92C4.832 24.912 3.284 23.448 2.132 21.528C0.98 19.584 0.404 17.28 0.404 14.616C0.404 12.048 0.992 9.768 2.168 7.776C3.368 5.76 5.024 4.188 7.136 3.06C9.248 1.932 11.624 1.368 14.264 1.368C16.472 1.368 18.476 1.74 20.276 2.484C22.076 3.228 23.588 4.308 24.812 5.724L21.068 9.18C19.268 7.284 17.096 6.336 14.552 6.336C12.944 6.336 11.516 6.684 10.268 7.38C9.02 8.052 8.048 9.012 7.352 10.26C6.656 11.508 6.308 12.948 6.308 14.58C6.308 16.284 6.644 17.736 7.316 18.936C8.012 20.136 8.936 21.048 10.088 21.672C11.24 22.272 12.5 22.572 13.868 22.572C15.908 22.572 17.624 21.996 19.016 20.844V14.004ZM34.7294 10.188C35.4014 9.252 36.3014 8.544 37.4294 8.064C38.5814 7.584 39.9014 7.344 41.3894 7.344V12.528C40.7654 12.48 40.3454 12.456 40.1294 12.456C38.5214 12.456 37.2614 12.912 36.3494 13.824C35.4374 14.712 34.9814 16.056 34.9814 17.856V27H29.3654V7.632H34.7294V10.188ZM53.7689 27.288C51.7289 27.288 49.8929 26.868 48.2609 26.028C46.6529 25.164 45.3929 23.976 44.4809 22.464C43.5689 20.952 43.1129 19.236 43.1129 17.316C43.1129 15.396 43.5689 13.68 44.4809 12.168C45.3929 10.656 46.6529 9.48 48.2609 8.64C49.8929 7.776 51.7289 7.344 53.7689 7.344C55.8089 7.344 57.6329 7.776 59.2409 8.64C60.8489 9.48 62.1089 10.656 63.0209 12.168C63.9329 13.68 64.3889 15.396 64.3889 17.316C64.3889 19.236 63.9329 20.952 63.0209 22.464C62.1089 23.976 60.8489 25.164 59.2409 26.028C57.6329 26.868 55.8089 27.288 53.7689 27.288ZM53.7689 22.68C55.2089 22.68 56.3849 22.2 57.2969 21.24C58.2329 20.256 58.7009 18.948 58.7009 17.316C58.7009 15.684 58.2329 14.388 57.2969 13.428C56.3849 12.444 55.2089 11.952 53.7689 11.952C52.3289 11.952 51.1409 12.444 50.2049 13.428C49.2689 14.388 48.8009 15.684 48.8009 17.316C48.8009 18.948 49.2689 20.256 50.2049 21.24C51.1409 22.2 52.3289 22.68 53.7689 22.68ZM87.6548 7.632V27H82.3268V24.696C81.5828 25.536 80.6948 26.184 79.6628 26.64C78.6308 27.072 77.5148 27.288 76.3148 27.288C73.7708 27.288 71.7548 26.556 70.2668 25.092C68.7788 23.628 68.0348 21.456 68.0348 18.576V7.632H73.6508V17.748C73.6508 20.868 74.9588 22.428 77.5748 22.428C78.9188 22.428 79.9988 21.996 80.8148 21.132C81.6308 20.244 82.0388 18.936 82.0388 17.208V7.632H87.6548ZM104.63 7.344C107.03 7.344 108.962 8.064 110.426 9.504C111.914 10.944 112.658 13.08 112.658 15.912V27H107.042V16.776C107.042 15.24 106.706 14.1 106.034 13.356C105.362 12.588 104.39 12.204 103.118 12.204C101.702 12.204 100.574 12.648 99.7336 13.536C98.8936 14.4 98.4736 15.696 98.4736 17.424V27H92.8576V7.632H98.2216V9.9C98.9656 9.084 99.8896 8.46 100.994 8.028C102.098 7.572 103.31 7.344 104.63 7.344ZM137.687 0.287998V27H132.323V24.768C130.931 26.448 128.915 27.288 126.275 27.288C124.451 27.288 122.795 26.88 121.307 26.064C119.843 25.248 118.691 24.084 117.851 22.572C117.011 21.06 116.591 19.308 116.591 17.316C116.591 15.324 117.011 13.572 117.851 12.06C118.691 10.548 119.843 9.384 121.307 8.568C122.795 7.752 124.451 7.344 126.275 7.344C128.747 7.344 130.679 8.124 132.071 9.684V0.287998H137.687ZM127.247 22.68C128.663 22.68 129.839 22.2 130.775 21.24C131.711 20.256 132.179 18.948 132.179 17.316C132.179 15.684 131.711 14.388 130.775 13.428C129.839 12.444 128.663 11.952 127.247 11.952C125.807 11.952 124.619 12.444 123.683 13.428C122.747 14.388 122.279 15.684 122.279 17.316C122.279 18.948 122.747 20.256 123.683 21.24C124.619 22.2 125.807 22.68 127.247 22.68Z" fill="white"/>
<path d="M162.116 6.48V22.32H166.472V27H151.892V22.32H156.284V6.48H151.892V1.8H166.472V6.48H162.116ZM189.239 8.856C187.079 7.608 184.763 6.804 182.291 6.444V27H176.459V6.444C173.987 6.804 171.659 7.608 169.475 8.856L167.495 4.5C169.223 3.468 171.095 2.688 173.111 2.16C175.127 1.632 177.203 1.368 179.339 1.368C181.499 1.368 183.587 1.632 185.603 2.16C187.643 2.688 189.515 3.468 191.219 4.5L189.239 8.856Z" fill="#D61313"/>
</svg>
