<svg width="175" height="175" viewBox="0 0 175 175" fill="none" xmlns="http://www.w3.org/2000/svg">
<path d="M87.5 0C39.2525 0 0 39.2525 0 87.5C0 135.747 39.2525 175 87.5 175C135.747 175 175 135.747 175 87.5C175 39.2525 135.747 0 87.5 0ZM87.5 169.167C42.4696 169.167 5.83333 132.53 5.83333 87.5C5.83333 42.4696 42.4696 5.83333 87.5 5.83333C132.53 5.83333 169.167 42.4696 169.167 87.5C169.167 132.53 132.53 169.167 87.5 169.167Z" fill="#D61313"/>
<path d="M87.5 17.5C85.89 17.5 84.5833 18.8038 84.5833 20.4167V87.5H40.8334C39.2234 87.5 37.9167 88.8038 37.9167 90.4167C37.9167 92.0296 39.2234 93.3333 40.8334 93.3333H87.5C89.11 93.3333 90.4167 92.0296 90.4167 90.4167V20.4167C90.4167 18.8038 89.11 17.5 87.5 17.5Z" fill="#D61313"/>
</svg>
