<svg width="177" height="174" viewBox="0 0 177 174" fill="none" xmlns="http://www.w3.org/2000/svg">
<path d="M146.061 91.7834C144.638 91.7834 143.485 92.9367 143.485 94.3593C143.485 96.1628 142.018 97.63 140.214 97.63C138.411 97.63 136.943 96.1628 136.943 94.3593C136.943 92.9364 135.79 91.7834 134.368 91.7834C132.945 91.7834 131.792 92.9367 131.792 94.3593C131.792 99.0035 135.57 102.782 140.214 102.782C144.858 102.782 148.636 99.0031 148.636 94.3593C148.636 92.936 147.483 91.7834 146.061 91.7834Z" fill="#D61313"/>
<path d="M170.239 92.2042L162.989 89.8818C162.061 89.5841 161.329 88.8429 161.032 87.8988C159.504 83.0406 157.198 78.4798 154.178 74.3424C152.802 72.4566 151.272 70.6558 149.6 68.9415C150.67 64.2493 151.251 58.9389 151.176 54.3511C151.068 47.7879 149.756 43.9385 147.166 42.582C145.771 41.8505 141.526 39.6283 118.548 50.1467C118.004 50.3956 117.496 50.7022 117.025 51.0534C115.476 50.6372 113.893 50.2521 112.3 49.9064C112.108 49.8646 111.91 49.8276 111.717 49.7868C113.579 45.7192 114.666 41.3015 114.871 36.741C114.934 35.3194 113.834 34.1157 112.412 34.0524C110.995 33.9819 109.787 35.0889 109.724 36.5104C109.388 44.009 106.277 51.0645 100.965 56.3769C97.7915 59.5508 94.0752 61.8563 90.1144 63.3083C83.2457 62.3444 76.2493 62.3444 69.3805 63.3083C65.4195 61.8563 61.7035 59.5508 58.5296 56.3769C52.8622 50.7095 49.7408 43.1742 49.7408 35.159C49.7408 27.1436 52.8622 19.6086 58.5296 13.9412C64.1971 8.27337 71.7327 5.15201 79.7475 5.15201C87.7623 5.15201 95.2979 8.27337 100.965 13.9412C103.243 16.2187 105.125 18.8177 106.559 21.6652C107.199 22.936 108.748 23.4477 110.019 22.8074C111.289 22.1679 111.801 20.6188 111.161 19.3483C109.48 16.0092 107.275 12.9646 104.609 10.2978C97.9681 3.65719 89.1389 0 79.7478 0C70.3568 0 61.5275 3.65719 54.8869 10.2978C48.2463 16.9388 44.5891 25.7677 44.5891 35.1587C44.5891 44.5497 48.2463 53.379 54.8869 60.0196C56.8025 61.9351 58.8864 63.5824 61.0906 64.9625C61.0913 64.9625 61.092 64.9621 61.0927 64.9621C59.491 65.3783 57.9015 65.8457 56.3296 66.3712C54.9803 66.8223 54.2522 68.2815 54.7034 69.6312C55.1542 70.9804 56.6141 71.7085 57.963 71.2577C72.011 66.5613 87.4847 66.5613 101.533 71.2577C101.804 71.3483 102.079 71.3911 102.35 71.3911C103.427 71.3911 104.432 70.7094 104.792 69.6312C105.243 68.2819 104.515 66.8223 103.166 66.3712C101.594 65.8457 100.005 65.378 98.403 64.9621C98.4037 64.9621 98.4044 64.9625 98.4051 64.9625C100.61 63.5824 102.693 61.9351 104.609 60.0196C106.303 58.325 107.799 56.4744 109.098 54.5077C109.808 54.6456 110.513 54.7901 111.208 54.9409C112.133 55.1417 113.054 55.3574 113.966 55.5839C113.938 55.6959 113.908 55.8075 113.884 55.9213C112.628 61.8829 112.71 67.1556 114.127 71.592C115.4 75.5797 117.699 78.8103 120.958 81.1946C124.799 84.0045 129.436 85.2182 133.637 85.2182C136.798 85.2182 139.713 84.5303 141.853 83.3179C144.275 81.9465 146.303 79.0568 147.909 74.7182C148.651 75.5845 149.355 76.4719 150.018 77.3804C152.706 81.0636 154.759 85.1228 156.118 89.4448C156.916 91.9833 158.898 93.9808 161.418 94.7887L168.669 97.1111C170.571 97.7206 171.849 99.4716 171.849 101.469V113.491C171.849 115.488 170.571 117.239 168.669 117.849L156.988 121.59C155.119 122.189 153.537 123.474 152.534 125.207C147.945 133.138 140.73 139.701 131.088 144.714C129.974 145.294 129.202 146.331 128.97 147.56L125.229 167.369C125.126 167.915 124.647 168.311 124.092 168.311H111.928C111.372 168.311 110.894 167.915 110.791 167.369L108.718 156.421C108.311 154.267 106.29 152.836 104.116 153.166C98.8759 153.958 93.4767 154.36 88.0689 154.36C84.0456 154.36 80.0738 154.135 76.2631 153.692C74.1561 153.45 72.1932 154.886 71.7994 156.967L69.8303 167.369C69.7269 167.915 69.2488 168.311 68.6933 168.311H56.529C55.9735 168.311 55.4954 167.915 55.3906 167.361L51.7884 148.651C51.5564 147.445 50.7993 146.42 49.71 145.839C33.2739 137.064 24.5864 122.405 24.5864 103.447C24.5864 93.8681 26.6821 85.398 30.8149 78.271C34.6716 71.62 40.3045 66.1209 47.557 61.9258C48.7884 61.2133 49.2091 59.6376 48.497 58.4058C47.7848 57.1744 46.2091 56.7544 44.9774 57.4659C30.9145 65.601 22.4327 78.1514 20.0975 94.0917V94.0914C19.8496 94.0689 19.6014 94.0475 19.3542 94.0219C19.3991 92.302 19.088 90.5666 18.4104 88.8823C16.9159 85.1674 13.8461 82.4861 10.5892 82.0516C8.02273 81.708 5.58034 82.7976 3.88536 85.0371C1.42775 88.2846 1.82842 90.8546 2.59692 92.4386C3.89435 95.1119 7.22934 97.0029 12.7637 98.1918C12.6116 98.4196 12.4443 98.6485 12.2611 98.8783C8.99105 102.979 5.13853 103.886 2.63702 103.972C1.17262 104.021 0 105.197 0 106.662V106.675C0 108.12 1.14047 109.299 2.58448 109.365C2.76943 109.374 2.96268 109.378 3.16388 109.378C6.32913 109.378 11.4092 108.211 16.2899 102.091C17.0604 101.125 17.6882 100.106 18.1708 99.0526C18.6569 99.1076 19.124 99.1546 19.5713 99.196C19.5713 99.195 19.5713 99.1943 19.5716 99.1933C19.4838 100.589 19.4351 102.006 19.4351 103.447C19.4351 114.173 21.9923 123.737 27.035 131.874C31.6847 139.376 38.3419 145.518 46.8283 150.137L50.3302 168.327C50.8934 171.303 53.5003 173.463 56.529 173.463H68.6933C71.722 173.463 74.3289 171.303 74.8921 168.327L76.6725 158.921C80.3701 159.313 84.1984 159.511 88.0686 159.511C93.3786 159.511 98.6823 159.141 103.851 158.411L105.728 168.328C106.292 171.303 108.899 173.463 111.927 173.463H124.091C127.12 173.463 129.727 171.303 130.29 168.326L133.933 149.039C144.224 143.597 151.981 136.449 156.993 127.787C157.354 127.163 157.91 126.705 158.559 126.497L170.239 122.755C174.283 121.459 177 117.736 177 113.49V101.468C177 97.2224 174.283 93.4995 170.239 92.2042ZM145.637 61.5898C144.646 70.0685 141.986 77.3213 139.314 78.8348C136.277 80.5554 129.264 80.8876 123.999 77.0361C118.728 73.1802 116.973 66.246 118.925 56.9833C118.925 56.9829 118.925 56.9829 118.925 56.9829C119.121 56.0526 119.782 55.2478 120.693 54.8309C133.589 48.9277 141.024 46.997 143.786 46.997C144.203 46.997 144.513 47.0409 144.72 47.1217C145.55 48.0061 146.638 53.0329 145.637 61.5898ZM7.23245 90.1891C6.96592 89.6394 7.5951 88.6732 7.99404 88.1456C8.62633 87.3104 9.20884 87.1396 9.64892 87.1396C9.74191 87.1396 9.82869 87.1473 9.9082 87.158C11.0926 87.316 12.752 88.6193 13.6311 90.8045C13.8382 91.3189 14.1071 92.171 14.17 93.2337C10.6041 92.4949 7.83363 91.4298 7.23245 90.1891Z" fill="#D61313"/>
<path d="M82.249 32.2064V22.9885C85.4277 23.2157 86.6087 24.6687 87.6983 24.6687C89.0607 24.6687 89.6965 22.9433 89.6965 22.0804C89.6965 19.8551 85.3368 18.9016 82.249 18.8107V17.5842C82.249 17.0393 81.5676 16.5398 80.8866 16.5398C80.1143 16.5398 79.5694 17.0393 79.5694 17.5842V18.9009C75.2554 19.3552 70.9414 21.6258 70.9414 27.3475C70.9414 33.1602 75.4825 34.795 79.5694 36.248V46.9195C74.9374 46.5562 73.7115 43.3774 72.2129 43.3774C71.0776 43.3774 70.1241 44.876 70.1241 45.966C70.1241 48.191 73.9386 51.2335 79.5694 51.3244V52.7321C79.5694 53.277 80.1146 53.7765 80.8866 53.7765C81.568 53.7765 82.249 53.277 82.249 52.7321V51.1882C87.1535 50.5069 90.5137 47.419 90.5137 41.8335C90.5137 35.6579 86.1997 33.6594 82.249 32.2064ZM79.8419 31.3438C77.4351 30.4357 75.4825 29.4822 75.4825 26.894C75.4825 24.5325 77.2989 23.3972 79.8419 23.0795V31.3438ZM81.9762 46.8286V37.2471C84.2012 38.2005 85.9722 39.472 85.9722 42.3327C85.9722 44.9217 84.4283 46.3747 81.9762 46.8286Z" fill="#D61313"/>
</svg>
