<svg width="172" height="172" viewBox="0 0 172 172" fill="none" xmlns="http://www.w3.org/2000/svg">
<path d="M16.5 16C18.433 16 20 14.433 20 12.5C20 10.567 18.433 9 16.5 9C14.567 9 13 10.567 13 12.5C13 14.433 14.567 16 16.5 16Z" fill="#D61313"/>
<path d="M30 16C31.6569 16 33 14.433 33 12.5C33 10.567 31.6569 9 30 9C28.3431 9 27 10.567 27 12.5C27 14.433 28.3431 16 30 16Z" fill="#D61313"/>
<path d="M44.5 16C46.433 16 48 14.433 48 12.5C48 10.567 46.433 9 44.5 9C42.567 9 41 10.567 41 12.5C41 14.433 42.567 16 44.5 16Z" fill="#D61313"/>
<path d="M14.5053 78H68.4947C69.8786 78 71 76.866 71 75.4673V34.5327C71 33.134 69.8786 32 68.4947 32H14.5053C13.1214 32 12 33.134 12 34.5327V75.4673C12 76.866 13.1214 78 14.5053 78ZM17.0106 37.0653H65.9894V72.9347H17.0106V37.0653Z" fill="#D61313"/>
<path d="M14.5053 89H68.4947C69.8786 89 71 87.6568 71 86C71 84.3432 69.8786 83 68.4947 83H14.5053C13.1214 83 12 84.3432 12 86C12 87.6568 13.1214 89 14.5053 89Z" fill="#D61313"/>
<path d="M14.5116 99H58.4884C59.8758 99 61 97.8807 61 96.5C61 95.1193 59.8758 94 58.4884 94H14.5116C13.1242 94 12 95.1193 12 96.5C12 97.8807 13.1242 99 14.5116 99Z" fill="#D61313"/>
<path d="M14.4266 109H40.5734C41.9139 109 43 107.881 43 106.5C43 105.119 41.9139 104 40.5734 104H14.4266C13.0861 104 12 105.119 12 106.5C12 107.881 13.0861 109 14.4266 109Z" fill="#D61313"/>
<path d="M169.48 87.2877C170.872 87.2877 172 86.1596 172 84.7681V53.3539C172 48.2598 167.856 44.1156 162.762 44.1156H148.924V9.23828C148.924 4.14412 144.78 0 139.686 0H9.23828C4.14446 0 0 4.14412 0 9.23828V37.7789C0 39.1703 1.12774 40.2984 2.51953 40.2984C3.91132 40.2984 5.03906 39.1703 5.03906 37.7789V25.4002H143.885V44.1156H137.385V34.4202C137.385 33.0287 136.257 31.9006 134.865 31.9006H80.5713C79.1795 31.9006 78.0517 33.0287 78.0517 34.4202V75.1391C78.0517 76.5306 79.1795 77.6587 80.5713 77.6587H98.4119V83.4805H80.5702C79.1785 83.4805 78.0507 84.6085 78.0507 86C78.0507 87.3915 79.1785 88.5195 80.5702 88.5195H98.4119V94.0004H80.5702C79.1785 94.0004 78.0507 95.1284 78.0507 96.5199C78.0507 97.9113 79.1785 99.0394 80.5702 99.0394H98.4119V104.52H80.5702C79.1785 104.52 78.0507 105.648 78.0507 107.04C78.0507 108.431 79.1785 109.559 80.5702 109.559H98.4119V122.846H9.23828C6.92266 122.846 5.03906 120.962 5.03906 118.646V49.5508C5.03906 48.1593 3.91132 47.0312 2.51953 47.0312C1.12774 47.0312 0 48.1593 0 49.5508V118.646C0 123.741 4.14446 127.885 9.23828 127.885H98.4119V162.762C98.4119 167.856 102.556 172 107.65 172H162.762C167.856 172 172 167.856 172 162.762V96.5612C172 95.1697 170.872 94.0417 169.48 94.0417C168.089 94.0417 166.961 95.1697 166.961 96.5612V162.762C166.961 165.077 165.077 166.961 162.762 166.961H107.65C105.335 166.961 103.451 165.077 103.451 162.762V69.5159H166.961V84.7685C166.961 86.1599 168.089 87.2877 169.48 87.2877ZM5.03906 20.3612V9.23828C5.03906 6.92266 6.92266 5.03906 9.23828 5.03906H139.686C142.002 5.03906 143.885 6.92266 143.885 9.23828V20.3612H5.03906ZM83.0908 72.6196V36.9397H132.346V44.1156H107.65C102.556 44.1156 98.4119 48.2598 98.4119 53.3539V72.6196H83.0908ZM103.451 64.4768V53.3543C103.451 51.0387 105.335 49.155 107.65 49.155H162.762C165.077 49.155 166.961 51.0387 166.961 53.3543V64.4768H103.451Z" fill="#D61313"/>
<path d="M161 78.5327C161 77.134 159.869 76 158.474 76H111.526C110.131 76 109 77.134 109 78.5327V119.467C109 120.866 110.131 122 111.526 122H158.474C159.869 122 161 120.866 161 119.467V78.5327H161ZM155.948 116.935H114.052V81.0653H155.948V116.935H155.948Z" fill="#D61313"/>
<path d="M161 130.5C161 129.119 159.869 128 158.474 128H111.526C110.131 128 109 129.119 109 130.5C109 131.881 110.131 133 111.526 133H158.474C159.869 133 161 131.881 161 130.5Z" fill="#D61313"/>
<path d="M151 140.5C151 139.119 149.864 138 148.462 138H111.538C110.136 138 109 139.119 109 140.5C109 141.881 110.136 143 111.538 143H148.462C149.864 143 151 141.881 151 140.5Z" fill="#D61313"/>
<path d="M111.548 149C110.14 149 109 150.119 109 151.5C109 152.881 110.14 154 111.548 154H131.452C132.86 154 134 152.881 134 151.5C134 150.119 132.86 149 131.452 149H111.548Z" fill="#D61313"/>
<path d="M118.443 54H111.557C110.144 54 109 55.1193 109 56.5C109 57.8807 110.144 59 111.557 59H118.443C119.856 59 121 57.8807 121 56.5C121 55.1193 119.855 54 118.443 54Z" fill="#D61313"/>
</svg>
