<svg width="64" height="64" viewBox="0 0 64 64" fill="none" xmlns="http://www.w3.org/2000/svg">
<g clip-path="url(#clip0)">
<path d="M63.0118 6.75293C62.2301 5.79688 61.0592 5.27051 59.7144 5.27051C58.9835 5.27051 58.2091 5.42432 57.4132 5.72852L3.23838 26.4087C0.363382 27.5059 -0.0238253 29.1523 0.00107701 30.0361C0.0259793 30.9199 0.50596 32.542 3.43858 33.4751C3.45615 33.4805 3.47373 33.4858 3.49131 33.4907L14.7286 36.7065L20.8058 54.0845C21.6344 56.4536 23.4942 57.9253 25.6603 57.9253C27.026 57.9253 28.3692 57.353 29.545 56.271L36.4957 49.8711L46.5772 57.9888C46.5782 57.9897 46.5797 57.9902 46.5807 57.9912L46.6764 58.0684C46.6852 58.0752 46.6944 58.0825 46.7032 58.0894C47.8238 58.9585 49.047 59.4175 50.2418 59.418H50.2423C52.5768 59.418 54.4356 57.6899 54.9771 55.0161L63.8536 11.186C64.2101 9.42676 63.9112 7.85254 63.0118 6.75293ZM18.4879 36.0957L40.1681 25.02L26.6686 39.3643C26.4474 39.5991 26.2906 39.8867 26.2135 40.1997L23.6105 50.7437L18.4879 36.0957ZM27.0045 53.5122C26.9146 53.5947 26.8243 53.6685 26.734 53.7363L29.149 43.9551L33.5421 47.4927L27.0045 53.5122ZM60.1783 10.4414L51.3018 54.272C51.2164 54.6914 50.9435 55.6675 50.2418 55.6675C49.8951 55.6675 49.4596 55.4785 49.0138 55.1353L37.5899 45.937C37.5885 45.9355 37.5865 45.9341 37.5846 45.9331L30.7872 40.4595L50.3092 19.7158C50.9342 19.0518 50.9908 18.0347 50.4435 17.3052C49.8956 16.5757 48.9029 16.3462 48.0909 16.7612L15.9825 33.1646L4.59239 29.9058L58.7506 9.23193C59.2081 9.05713 59.5274 9.02051 59.7144 9.02051C59.8292 9.02051 60.0333 9.03418 60.109 9.12744C60.2086 9.24902 60.3355 9.66357 60.1783 10.4414Z" fill="#D61313"/>
</g>
<defs>
<clipPath id="clip0">
<rect width="64" height="64" fill="white"/>
</clipPath>
</defs>
</svg>
